<?xml version="1.0" encoding="iso-8859-1"?>
<!-- Uploaded to: SVG Repo, www.svgrepo.com, Generator: SVG Repo Mixer Tools -->
<!DOCTYPE svg PUBLIC "-//W3C//DTD SVG 1.1//EN" "http://www.w3.org/Graphics/SVG/1.1/DTD/svg11.dtd">
<svg fill="#FFFFFF" version="1.1" id="Capa_1" xmlns="http://www.w3.org/2000/svg" xmlns:xlink="http://www.w3.org/1999/xlink" 
	 width="800px" height="800px" viewBox="0 0 464.33 464.33"
	 xml:space="preserve">
<g>
	<path d="M170.413,103.804V71.666c4.704-1.795,8.044-6.349,8.044-11.683V12.5c0-6.903-5.597-12.5-12.5-12.5h-59.358
		c-6.904,0-12.5,5.597-12.5,12.5v47.483c0,5.334,3.341,9.888,8.044,11.683v32.138c-29.657,13.29-49.006,42.703-49.006,75.827V451.83
		c0,6.903,5.596,12.5,12.5,12.5h141.281c6.904,0,12.5-5.597,12.5-12.5v-88.665v-14.112V237.361v-9.696v-48.034
		C219.418,146.507,200.069,117.094,170.413,103.804z M194.418,336.553H123.26v-86.691h71.159V336.553z M153.458,25v22.483H119.1V25
		H153.458z M194.418,439.33H78.138V179.631c0-25.353,16.208-47.597,40.332-55.352c5.169-1.662,8.674-6.471,8.674-11.9V72.483h18.269
		v39.896c0,5.43,3.505,10.238,8.674,11.9c24.124,7.755,40.332,29.999,40.332,55.352v45.23h-83.659c-6.904,0-12.5,5.597-12.5,12.5
		v111.691c0,6.902,5.596,12.5,12.5,12.5h83.659v1.612V439.33L194.418,439.33z M362.188,103.804V71.666
		c4.703-1.795,8.045-6.349,8.045-11.683V12.5c0-6.903-5.598-12.5-12.5-12.5h-59.359c-6.902,0-12.5,5.597-12.5,12.5v47.483
		c0,5.334,3.342,9.888,8.045,11.683v32.138c-29.657,13.291-49.006,42.704-49.006,75.827V451.83c0,6.903,5.596,12.5,12.5,12.5
		h141.281c6.902,0,12.5-5.597,12.5-12.5V179.631C411.193,146.507,391.844,117.094,362.188,103.804z M345.232,25v22.483h-34.359V25
		H345.232z M386.193,439.33H269.912V179.631c0-25.353,16.209-47.597,40.332-55.352c5.17-1.662,8.674-6.471,8.674-11.9V72.483h18.27
		v39.896c0,5.43,3.506,10.238,8.674,11.9c24.125,7.755,40.332,29.999,40.332,55.352V439.33L386.193,439.33z M290.211,224.861
		c-6.904,0-12.5,5.597-12.5,12.5v111.691c0,6.902,5.596,12.5,12.5,12.5h75.686c6.902,0,12.5-5.598,12.5-12.5V237.361
		c0-6.903-5.598-12.5-12.5-12.5L290.211,224.861L290.211,224.861z M353.396,336.553h-50.688v-86.691h50.688V336.553z"/>
</g>
</svg>